<?xml version="1.0" encoding="UTF-8"?>
<!DOCTYPE svg  PUBLIC '-//W3C//DTD SVG 1.1//EN'  'http://www.w3.org/Graphics/SVG/1.1/DTD/svg11.dtd'>
<svg width="2045.6px" height="1910.6px" enable-background="new 0 0 2045.59 1910.576" version="1.1" viewBox="0 0 2045.59 1910.576" xml:space="preserve" xmlns="http://www.w3.org/2000/svg">
	<path d="m461.62 579.76c72.668 0 131.58-58.903 131.58-131.57s-58.909-131.57-131.58-131.57-131.57 58.903-131.57 131.57c-1e-3 72.671 58.902 131.57 131.57 131.57z"/>
	<path d="m1718 383.29c-120.96 0-222.23 85.643-246.58 199.46l-209.02-11.007-87.795 149.34-12.516 0.916-174.56-130.51 2.792-15.723 261.96-24.566 177.65-235.52c17.146-22.701 12.607-54.98-10.094-72.109-22.682-17.148-54.993-12.624-72.092 10.101l-150.3 199.24-210.79 19.754-208.38-68.477 32.365-72.836 273.18-201.66c22.88-16.88 27.729-49.117 10.861-71.997-16.894-22.873-49.166-27.745-72-10.838l-295.1 217.82-89.641 201.77 0.562 0.188-25.373 60.1-163.55 197.1-210.9 192.1c-21.015 19.13-22.536 51.713-3.394 72.714 10.153 11.173 24.097 16.828 38.073 16.828 12.383 0 24.792-4.426 34.661-13.428l213.56-194.5 135.11-162.04 273.1 41.375 188.15 140.64-83.661 142.3-79.951-23.528c27.801-38.483 83.462-95.676 106.81-118.5 9.029-8.827 9.208-23.316 0.357-32.355-8.784-9.029-23.31-9.174-32.358-0.37-11.212 10.983-110.25 108.57-130.83 155.98-18.322 42.195-21.596 164.94-21.914 178.79-0.291 12.627 9.724 23.104 22.357 23.396h0.529c12.389 0 22.575-9.902 22.86-22.371 0.827-36.307 4.313-93.669 10.603-131.3l75.704 22.277 93.159 140.86c-34.548 29.475-62.454 65.518-78.19 100.38-21.63 47.956-19.255 90.548 6.661 119.93 33.298 37.769 55.82 58.545 75.684 76.914 27.126 25.076 50.568 46.726 96.063 104.89 19.579 25.05 46.48 38.299 77.787 38.299 99.841 0 227.28-141.6 227.28-252.52 0-139.08-113.16-252.24-252.23-252.24-36.36 0-72.939 12.02-106.35 31.241l-76.174-115.19 337.33-2.705c16.873 46.236 60.867 79.508 112.87 79.508 60.51 0 110.25-44.939 118.78-103.1l26.908-95.333c16.18 3.261 32.868 5.004 49.986 5.004 139.08 0 252.24-113.15 252.24-252.24s-113.16-252.25-252.24-252.25zm-463.36 749.04c114.83 0 208.26 93.431 208.26 208.27 0 87.702-106.21 208.52-183.3 208.52-17.767 0-31.889-6.992-43.146-21.385-47.665-60.98-73.494-84.846-100.85-110.12-20.022-18.501-40.739-37.63-72.563-73.692-18.633-21.121-7.705-54.637 0.45-72.734 12.534-27.774 35.17-56.826 62.766-81.181l116.67 176.37c5.523 8.314 14.618 12.825 23.892 12.825 5.431 0 10.901-1.541 15.75-4.735 13.183-8.718 16.808-26.479 8.089-39.642l-117.82-178.14c26.564-14.956 54.815-24.361 81.809-24.361zm427.16-382.68l-24.045 85.183c-41.559-12.591-77.563-37.912-103.73-71.328l58.949-74.702c12.044 29.732 37.517 52.255 68.825 60.847zm-75.487-89.35l-65.874 83.506c-18.276-29.842-29.203-64.545-30.368-101.75l95.462 5.027c-0.02 0.936-0.265 1.809-0.265 2.748 0 3.586 0.689 6.973 1.045 10.468zm-425.79 163.6l231.14-16.874c28.356-2.077 49.676-26.736 47.599-55.103-2.077-28.347-26.61-49.507-55.106-47.599l-160.22 11.701 50.145-85.328 171.91 9.049c0.847 52.212 17.628 100.56 45.72 140.48l-80.354 101.84 0.179 0.132c-14.929 17.274-24.917 38.636-28.132 62.346l-295.17 2.375 72.29-123.02zm341.8 224.06c-48.135 0-87.306-39.172-87.306-87.306s39.171-87.286 87.306-87.286c48.127 0 87.299 39.152 87.299 87.286s-39.172 87.306-87.299 87.306zm112.17-130.66c-17.496-45.048-61.026-77.195-112.17-77.195-11.424 0-22.259 2.113-32.742 5.083l36.559-46.322c31.175 36.569 72.516 64.145 119.68 78.257l-11.331 40.177zm83.509-73.508c-12.984 0-25.632-1.353-37.941-3.631l24.514-86.869c1.562 0.079 3.036 0.47 4.624 0.47 57.407 0 103.93-46.524 103.93-103.93 0-57.385-46.521-103.92-103.93-103.92-35.441 0-66.636 17.796-85.381 44.856l-107.64-5.662c22.636-90.5 104.42-157.82 201.82-157.82 114.84 0 208.26 93.415 208.26 208.25s-93.424 208.25-208.26 208.25z"/>
	<path d="m1157.1 1566.1c0-73.74-76.822-133.5-171.62-133.5-94.774 0-171.61 59.756-171.61 133.5 0 30.923 13.653 59.326 36.341 81.961h-800.02v175.44h1887.8v-175.44h-817.2c22.682-22.635 36.334-51.038 36.334-81.961z"/>
</svg>
